<?xml version="1.0" encoding="UTF-8"?>
<svg xmlns="http://www.w3.org/2000/svg" version="1.1" viewBox="0 0 150 150">
  <defs>
    <style>
      .cls-1 {
        fill: #fff;
      }

      .cls-2 {
        fill: #828282;
      }
    </style>
  </defs>
  <!-- Generator: Adobe Illustrator 28.6.0, SVG Export Plug-In . SVG Version: 1.2.0 Build 578)  -->
  <g>
    <g id="Capa_1">
      <g>
        <path class="cls-2" d="M142.3,75.2c0-37.3-30.2-67.5-67.5-67.5S7.3,37.9,7.3,75.2s24.7,61.6,57,66.7v-47.2h-17.1v-19.5h17.1v-14.9c0-16.9,10.1-26.3,25.5-26.3s15.1,1.3,15.1,1.3v16.6h-8.5c-8.4,0-11,5.2-11,10.5v12.7h18.7l-3,19.5h-15.7v47.2c32.3-5.1,57-33,57-66.7Z"/>
        <path class="cls-1" d="M101.1,94.7l3-19.5h-18.7v-12.7c0-5.3,2.6-10.5,11-10.5h8.5v-16.6s-7.7-1.3-15.1-1.3c-15.4,0-25.5,9.3-25.5,26.3v14.9h-17.1v19.5h17.1v47.2c3.4.5,7,.8,10.5.8s7.1-.3,10.5-.8v-47.2h15.7Z"/>
      </g>
    </g>
  </g>
</svg>