<?xml version="1.0" encoding="UTF-8"?>
<svg xmlns="http://www.w3.org/2000/svg" version="1.1" viewBox="0 0 150 150">
  <defs>
    <style>
      .cls-1 {
        fill: #fff;
      }

      .cls-2 {
        fill: #828282;
      }
    </style>
  </defs>
  <!-- Generator: Adobe Illustrator 28.6.0, SVG Export Plug-In . SVG Version: 1.2.0 Build 578)  -->
  <g>
    <g id="Capa_1">
      <g>
        <path class="cls-2" d="M69.4,6c57.4-3.5,93.5,59.1,63.3,106.5-26.1,41-87,42.5-114.9,2.6-31.4-44.9-.3-105.9,51.6-109.1ZM34.8,34.5c10.3,15.1,20.6,30.1,30.9,45.2-10.4,12-20.7,23.9-31.1,35.9,2.4,0,4.8.1,7.1.2,1.9-.7,22.6-28.3,27.2-31.1,7.2,10.4,14.4,20.7,21.6,31.1h23.3c-10.6-15.5-21.2-31-31.8-46.5v-.9c9.7-11.2,19.3-22.5,29-33.7-2.2,0-4.5-.1-6.7-.2-8.5,9.9-17,19.9-25.5,29.8-6.9-9.9-13.8-19.9-20.7-29.8h-23.3Z"/>
        <path class="cls-1" d="M34.8,34.5h23.3c6.9,9.9,13.8,19.9,20.7,29.8,8.5-9.9,17-19.9,25.5-29.8,2.2,0,4.5.1,6.7.2-9.7,11.2-19.3,22.5-29,33.7v.9c10.6,15.5,21.2,31,31.8,46.5h-23.3c-7.2-10.4-14.4-20.7-21.6-31.1-4.6,2.8-25.3,30.4-27.2,31.1-2.4,0-4.8-.1-7.1-.2,10.4-12,20.7-23.9,31.1-35.9-10.3-15.1-20.6-30.1-30.9-45.2ZM44.3,39.7c16.3,23.5,32.7,47.1,49,70.6,3.5,0,7.1.1,10.6.2,0-.2.1-.4.2-.6-16.5-23.4-33-46.8-49.5-70.2h-10.4Z"/>
        <path class="cls-2" d="M44.3,39.7h10.4c16.5,23.4,33,46.8,49.5,70.2,0,.2-.1.4-.2.6-3.5,0-7.1-.1-10.6-.2-16.3-23.5-32.7-47.1-49-70.6Z"/>
      </g>
    </g>
  </g>
</svg>