<?xml version="1.0" encoding="UTF-8"?>
<svg xmlns="http://www.w3.org/2000/svg" version="1.1" viewBox="0 0 150 150">
  <defs>
    <style>
      .cls-1 {
        fill: #fff;
        fill-rule: evenodd;
      }

      .cls-2 {
        fill: #828282;
      }
    </style>
  </defs>
  <!-- Generator: Adobe Illustrator 28.6.0, SVG Export Plug-In . SVG Version: 1.2.0 Build 578)  -->
  <g>
    <g id="Capa_1">
      <g>
        <circle class="cls-2" cx="75" cy="75" r="67.5"/>
        <g id="WA_Logo">
          <path class="cls-1" d="M107.5,43.4c-8.1-8.1-18.8-12.5-30.3-12.6-23.6,0-42.8,19.2-42.8,42.8,0,7.5,2,14.9,5.7,21.4l-6.1,22.2,22.7-6c6.3,3.4,13.3,5.2,20.5,5.2h0s0,0,0,0c23.6,0,42.8-19.2,42.8-42.8,0-11.4-4.4-22.2-12.5-30.3ZM77.2,109.2h0c-6.4,0-12.7-1.7-18.1-5l-1.3-.8-13.5,3.5,3.6-13.1-.8-1.3c-3.6-5.7-5.4-12.2-5.4-18.9,0-19.6,16-35.6,35.6-35.6,9.5,0,18.4,3.7,25.2,10.4,6.7,6.7,10.4,15.7,10.4,25.2,0,19.6-16,35.6-35.6,35.6ZM96.7,82.6c-1.1-.5-6.3-3.1-7.3-3.5-1-.4-1.7-.5-2.4.5-.7,1.1-2.8,3.5-3.4,4.2-.6.7-1.2.8-2.3.3-1.1-.5-4.5-1.7-8.6-5.3-3.2-2.8-5.3-6.3-6-7.4-.6-1.1,0-1.6.5-2.2.5-.5,1.1-1.2,1.6-1.9.5-.6.7-1.1,1.1-1.8.4-.7.2-1.3,0-1.9-.3-.5-2.4-5.8-3.3-7.9-.9-2.1-1.8-1.8-2.4-1.8-.6,0-1.3,0-2.1,0s-1.9.3-2.9,1.3c-1,1.1-3.7,3.7-3.7,8.9s3.8,10.4,4.4,11.1c.5.7,7.5,11.5,18.3,16.2,2.6,1.1,4.5,1.8,6.1,2.3,2.6.8,4.9.7,6.7.4,2.1-.3,6.3-2.6,7.2-5.1.9-2.5.9-4.6.6-5.1-.3-.4-1-.7-2.1-1.2Z"/>
        </g>
      </g>
    </g>
  </g>
</svg>