<?xml version="1.0" encoding="UTF-8"?>
<svg xmlns="http://www.w3.org/2000/svg" version="1.1" viewBox="0 0 150 150">
  <defs>
    <style>
      .cls-1 {
        fill: #fff;
      }

      .cls-2 {
        fill: #828282;
      }
    </style>
  </defs>
  <!-- Generator: Adobe Illustrator 28.6.0, SVG Export Plug-In . SVG Version: 1.2.0 Build 578)  -->
  <g>
    <g id="Capa_1">
      <g>
        <circle class="cls-2" cx="75" cy="75" r="67.5"/>
        <g>
          <path class="cls-1" d="M75,40.2c11.3,0,12.7,0,17.2.2,4.1.2,6.4.9,7.9,1.5,2,.8,3.4,1.7,4.9,3.2,1.5,1.5,2.4,2.9,3.2,4.9.6,1.5,1.3,3.7,1.5,7.9.2,4.5.2,5.8.2,17.2s0,12.7-.2,17.2c-.2,4.1-.9,6.4-1.5,7.9-.8,2-1.7,3.4-3.2,4.9-1.5,1.5-2.9,2.4-4.9,3.2-1.5.6-3.7,1.3-7.9,1.5-4.5.2-5.8.2-17.2.2s-12.7,0-17.2-.2c-4.1-.2-6.4-.9-7.9-1.5-2-.8-3.4-1.7-4.9-3.2-1.5-1.5-2.4-2.9-3.2-4.9-.6-1.5-1.3-3.7-1.5-7.9-.2-4.5-.2-5.8-.2-17.2s0-12.7.2-17.2c.2-4.1.9-6.4,1.5-7.9.8-2,1.7-3.4,3.2-4.9,1.5-1.5,2.9-2.4,4.9-3.2,1.5-.6,3.7-1.3,7.9-1.5,4.5-.2,5.8-.2,17.2-.2M75,32.5c-11.5,0-13,0-17.5.3-4.5.2-7.6.9-10.3,2-2.8,1.1-5.2,2.5-7.5,4.9-2.4,2.4-3.8,4.7-4.9,7.5-1.1,2.7-1.8,5.8-2,10.3-.2,4.5-.3,6-.3,17.5s0,13,.3,17.5c.2,4.5.9,7.6,2,10.3,1.1,2.8,2.5,5.2,4.9,7.5,2.4,2.4,4.7,3.8,7.5,4.9,2.7,1.1,5.8,1.8,10.3,2,4.5.2,6,.3,17.5.3s13,0,17.5-.3c4.5-.2,7.6-.9,10.3-2,2.8-1.1,5.2-2.5,7.5-4.9,2.4-2.4,3.8-4.7,4.9-7.5,1.1-2.7,1.8-5.8,2-10.3.2-4.5.3-6,.3-17.5s0-13-.3-17.5c-.2-4.5-.9-7.6-2-10.3-1.1-2.8-2.5-5.2-4.9-7.5-2.4-2.4-4.7-3.8-7.5-4.9-2.7-1.1-5.8-1.8-10.3-2-4.5-.2-6-.3-17.5-.3h0Z"/>
          <path class="cls-1" d="M75,53.2c-12.1,0-21.8,9.8-21.8,21.8s9.8,21.8,21.8,21.8,21.8-9.8,21.8-21.8-9.8-21.8-21.8-21.8ZM75,89.2c-7.8,0-14.2-6.3-14.2-14.2s6.3-14.2,14.2-14.2,14.2,6.3,14.2,14.2-6.3,14.2-14.2,14.2Z"/>
          <circle class="cls-1" cx="97.7" cy="52.3" r="5.1"/>
        </g>
      </g>
    </g>
  </g>
</svg>