<?xml version="1.0" encoding="UTF-8"?>
<svg xmlns="http://www.w3.org/2000/svg" version="1.1" viewBox="0 0 150 150">
  <defs>
    <style>
      .cls-1 {
        fill: #fff;
      }

      .cls-2 {
        fill: #828282;
      }
    </style>
  </defs>
  <!-- Generator: Adobe Illustrator 28.6.0, SVG Export Plug-In . SVG Version: 1.2.0 Build 578)  -->
  <g>
    <g id="Capa_1">
      <g>
        <circle class="cls-2" cx="75" cy="75" r="67.5"/>
        <path class="cls-1" d="M118.1,53.3c-1-3.9-4.1-6.9-8-8-7-1.9-35.2-1.9-35.2-1.9,0,0-28.1,0-35.2,1.9-3.9,1-6.9,4.1-8,8-1.9,7-1.9,21.7-1.9,21.7,0,0,0,14.6,1.9,21.7,1,3.9,4.1,6.9,8,8,7,1.9,35.2,1.9,35.2,1.9,0,0,28.1,0,35.2-1.9,3.9-1,6.9-4.1,8-8,1.9-7,1.9-21.7,1.9-21.7,0,0,0-14.6-1.9-21.7ZM66,88.5v-27l23.4,13.5-23.4,13.5Z"/>
      </g>
    </g>
  </g>
</svg>