<?xml version="1.0" encoding="UTF-8"?>
<svg id="Capa_1" data-name="Capa 1" xmlns="http://www.w3.org/2000/svg" viewBox="0 0 500 500">
  <defs>
    <style>
      .cls-1, .cls-2 {
        fill: #636363;
      }

      .cls-2 {
        fill-rule: evenodd;
      }
    </style>
  </defs>
  <g id="Group_6" data-name="Group 6">
    <g id="shopping-bag-svgrepo-com">
      <path id="Path_2" data-name="Path 2" class="cls-1" d="M289.75,355.05c0,10.98,8.9,19.87,19.87,19.87s19.87-8.9,19.87-19.87c-.16-20.1-8.94-39.16-24.11-52.34-15.34-13.37-35.04-20.67-55.38-20.54-20.35-.13-40.04,7.17-55.38,20.54-15.17,13.18-23.95,32.24-24.11,52.34,0,10.98,8.91,19.87,19.88,19.86,10.97,0,19.86-8.9,19.86-19.86.18-8.74,4.11-16.99,10.79-22.63,8.06-6.89,18.36-10.62,28.96-10.49,10.61-.13,20.9,3.6,28.96,10.49,6.69,5.64,10.62,13.89,10.79,22.63Z"/>
      <path id="Path_3" data-name="Path 3" class="cls-2" d="M129.37,57.77c11.31-12.58,27.42-19.76,44.33-19.77h152.58c16.91,0,33.02,7.19,44.33,19.76l49.6,55.15c9.84,10.95,15.28,25.14,15.29,39.85v249.6c0,32.93-26.68,59.63-59.61,59.64H124.12c-32.93,0-59.62-26.69-59.62-59.62h0v-249.6c0-14.72,5.44-28.92,15.29-39.86l49.58-55.14ZM173.71,77.75c-5.64,0-11.02,2.4-14.79,6.6l-41.69,46.4h265.53l-41.71-46.4c-3.77-4.2-9.14-6.6-14.79-6.6h-152.59.03ZM104.25,402.38v-231.87h291.5v231.87c0,10.98-8.9,19.87-19.87,19.87H124.12c-10.98,0-19.87-8.9-19.87-19.87h0Z"/>
    </g>
    <circle id="Ellipse_30" data-name="Ellipse 30" class="cls-1" cx="177.27" cy="235.82" r="30.55"/>
    <circle id="Ellipse_31" data-name="Ellipse 31" class="cls-1" cx="335.82" cy="235.82" r="30.55"/>
  </g>
</svg>