<?xml version="1.0" encoding="UTF-8"?>
<svg id="Capa_1" data-name="Capa 1" xmlns="http://www.w3.org/2000/svg" viewBox="0 0 500 500">
  <defs>
    <style>
      .cls-1, .cls-2 {
        fill: #636363;
      }

      .cls-2 {
        fill-rule: evenodd;
      }
    </style>
  </defs>
  <g id="shopping-bag-svgrepo-com">
    <path id="Path_2" data-name="Path 2" class="cls-1" d="M210.85,227.11c0-10.81-8.76-19.57-19.57-19.57s-19.57,8.76-19.57,19.57c.16,19.79,8.81,38.56,23.75,51.54,31.37,26.97,77.73,26.97,109.1,0,14.94-12.98,23.59-31.75,23.75-51.54,0-10.81-8.76-19.57-19.57-19.57s-19.57,8.76-19.57,19.57c-.17,8.61-4.04,16.73-10.62,22.29-16.52,13.78-40.53,13.78-57.05,0-6.59-5.55-10.46-13.68-10.62-22.29h-.01Z"/>
    <path id="Path_3" data-name="Path 3" class="cls-2" d="M131.2,63.88c11.14-12.39,27.01-19.46,43.66-19.47h150.28c16.65,0,32.52,7.08,43.65,19.47l48.84,54.32c9.69,10.78,15.05,24.76,15.05,39.25v245.83c0,32.43-26.28,58.71-58.71,58.72H126.03c-32.43,0-58.72-26.29-58.72-58.72h0v-245.83c0-14.5,5.36-28.48,15.05-39.25l48.84-54.32ZM174.87,83.56c-5.56,0-10.85,2.36-14.56,6.5l-41.05,45.7h261.5l-41.07-45.7c-3.71-4.14-9.01-6.5-14.56-6.5h-150.28.02ZM106.46,403.28v-228.37h287.09v228.37c0,10.81-8.76,19.57-19.57,19.57H126.03c-10.81,0-19.57-8.76-19.57-19.57Z"/>
  </g>
</svg>